%TF.GenerationSoftware,KiCad,Pcbnew,5.1.9+dfsg1-1+deb11u1*%
%TF.CreationDate,2023-05-03T00:18:42-05:00*%
%TF.ProjectId,PCB Test Design,50434220-5465-4737-9420-44657369676e,rev?*%
%TF.SameCoordinates,Original*%
%TF.FileFunction,Copper,L1,Top*%
%TF.FilePolarity,Positive*%
%FSLAX46Y46*%
G04 Gerber Fmt 4.6, Leading zero omitted, Abs format (unit mm)*
G04 Created by KiCad (PCBNEW 5.1.9+dfsg1-1+deb11u1) date 2023-05-03 00:18:42*
%MOMM*%
%LPD*%
G01*
G04 APERTURE LIST*
%TA.AperFunction,NonConductor*%
%ADD10C,0.175000*%
%TD*%
%TA.AperFunction,NonConductor*%
%ADD11C,0.187500*%
%TD*%
%TA.AperFunction,NonConductor*%
%ADD12C,0.250000*%
%TD*%
%TA.AperFunction,ComponentPad*%
%ADD13R,1.300000X1.300000*%
%TD*%
%TA.AperFunction,ComponentPad*%
%ADD14C,1.300000*%
%TD*%
%TA.AperFunction,SMDPad,CuDef*%
%ADD15R,1.470000X0.620000*%
%TD*%
%TA.AperFunction,SMDPad,CuDef*%
%ADD16R,1.400000X1.000000*%
%TD*%
%TA.AperFunction,SMDPad,CuDef*%
%ADD17R,1.000000X1.400000*%
%TD*%
%TA.AperFunction,ComponentPad*%
%ADD18R,1.515000X1.515000*%
%TD*%
%TA.AperFunction,ComponentPad*%
%ADD19C,1.515000*%
%TD*%
%TA.AperFunction,ComponentPad*%
%ADD20C,2.430000*%
%TD*%
%TA.AperFunction,ComponentPad*%
%ADD21R,2.430000X2.430000*%
%TD*%
%TA.AperFunction,ViaPad*%
%ADD22C,0.800000*%
%TD*%
%TA.AperFunction,Conductor*%
%ADD23C,0.250000*%
%TD*%
G04 APERTURE END LIST*
D10*
X131653333Y-133633333D02*
X131753333Y-133666666D01*
X131920000Y-133666666D01*
X131986666Y-133633333D01*
X132020000Y-133600000D01*
X132053333Y-133533333D01*
X132053333Y-133466666D01*
X132020000Y-133400000D01*
X131986666Y-133366666D01*
X131920000Y-133333333D01*
X131786666Y-133300000D01*
X131720000Y-133266666D01*
X131686666Y-133233333D01*
X131653333Y-133166666D01*
X131653333Y-133100000D01*
X131686666Y-133033333D01*
X131720000Y-133000000D01*
X131786666Y-132966666D01*
X131953333Y-132966666D01*
X132053333Y-133000000D01*
X132353333Y-133666666D02*
X132353333Y-133200000D01*
X132353333Y-132966666D02*
X132320000Y-133000000D01*
X132353333Y-133033333D01*
X132386666Y-133000000D01*
X132353333Y-132966666D01*
X132353333Y-133033333D01*
X132986666Y-133666666D02*
X132986666Y-132966666D01*
X132986666Y-133633333D02*
X132920000Y-133666666D01*
X132786666Y-133666666D01*
X132720000Y-133633333D01*
X132686666Y-133600000D01*
X132653333Y-133533333D01*
X132653333Y-133333333D01*
X132686666Y-133266666D01*
X132720000Y-133233333D01*
X132786666Y-133200000D01*
X132920000Y-133200000D01*
X132986666Y-133233333D01*
X133586666Y-133633333D02*
X133520000Y-133666666D01*
X133386666Y-133666666D01*
X133320000Y-133633333D01*
X133286666Y-133566666D01*
X133286666Y-133300000D01*
X133320000Y-133233333D01*
X133386666Y-133200000D01*
X133520000Y-133200000D01*
X133586666Y-133233333D01*
X133620000Y-133300000D01*
X133620000Y-133366666D01*
X133286666Y-133433333D01*
X134686666Y-133300000D02*
X134786666Y-133333333D01*
X134820000Y-133366666D01*
X134853333Y-133433333D01*
X134853333Y-133533333D01*
X134820000Y-133600000D01*
X134786666Y-133633333D01*
X134720000Y-133666666D01*
X134453333Y-133666666D01*
X134453333Y-132966666D01*
X134686666Y-132966666D01*
X134753333Y-133000000D01*
X134786666Y-133033333D01*
X134820000Y-133100000D01*
X134820000Y-133166666D01*
X134786666Y-133233333D01*
X134753333Y-133266666D01*
X134686666Y-133300000D01*
X134453333Y-133300000D01*
X135253333Y-133666666D02*
X135186666Y-133633333D01*
X135153333Y-133600000D01*
X135120000Y-133533333D01*
X135120000Y-133333333D01*
X135153333Y-133266666D01*
X135186666Y-133233333D01*
X135253333Y-133200000D01*
X135353333Y-133200000D01*
X135420000Y-133233333D01*
X135453333Y-133266666D01*
X135486666Y-133333333D01*
X135486666Y-133533333D01*
X135453333Y-133600000D01*
X135420000Y-133633333D01*
X135353333Y-133666666D01*
X135253333Y-133666666D01*
X135786666Y-133666666D02*
X135786666Y-133200000D01*
X135786666Y-133333333D02*
X135820000Y-133266666D01*
X135853333Y-133233333D01*
X135920000Y-133200000D01*
X135986666Y-133200000D01*
X136520000Y-133666666D02*
X136520000Y-132966666D01*
X136520000Y-133633333D02*
X136453333Y-133666666D01*
X136320000Y-133666666D01*
X136253333Y-133633333D01*
X136220000Y-133600000D01*
X136186666Y-133533333D01*
X136186666Y-133333333D01*
X136220000Y-133266666D01*
X136253333Y-133233333D01*
X136320000Y-133200000D01*
X136453333Y-133200000D01*
X136520000Y-133233333D01*
X137120000Y-133633333D02*
X137053333Y-133666666D01*
X136920000Y-133666666D01*
X136853333Y-133633333D01*
X136820000Y-133566666D01*
X136820000Y-133300000D01*
X136853333Y-133233333D01*
X136920000Y-133200000D01*
X137053333Y-133200000D01*
X137120000Y-133233333D01*
X137153333Y-133300000D01*
X137153333Y-133366666D01*
X136820000Y-133433333D01*
X137453333Y-133666666D02*
X137453333Y-133200000D01*
X137453333Y-133333333D02*
X137486666Y-133266666D01*
X137520000Y-133233333D01*
X137586666Y-133200000D01*
X137653333Y-133200000D01*
X130383333Y-35843333D02*
X130483333Y-35876666D01*
X130650000Y-35876666D01*
X130716666Y-35843333D01*
X130750000Y-35810000D01*
X130783333Y-35743333D01*
X130783333Y-35676666D01*
X130750000Y-35610000D01*
X130716666Y-35576666D01*
X130650000Y-35543333D01*
X130516666Y-35510000D01*
X130450000Y-35476666D01*
X130416666Y-35443333D01*
X130383333Y-35376666D01*
X130383333Y-35310000D01*
X130416666Y-35243333D01*
X130450000Y-35210000D01*
X130516666Y-35176666D01*
X130683333Y-35176666D01*
X130783333Y-35210000D01*
X131083333Y-35876666D02*
X131083333Y-35410000D01*
X131083333Y-35176666D02*
X131050000Y-35210000D01*
X131083333Y-35243333D01*
X131116666Y-35210000D01*
X131083333Y-35176666D01*
X131083333Y-35243333D01*
X131716666Y-35876666D02*
X131716666Y-35176666D01*
X131716666Y-35843333D02*
X131650000Y-35876666D01*
X131516666Y-35876666D01*
X131450000Y-35843333D01*
X131416666Y-35810000D01*
X131383333Y-35743333D01*
X131383333Y-35543333D01*
X131416666Y-35476666D01*
X131450000Y-35443333D01*
X131516666Y-35410000D01*
X131650000Y-35410000D01*
X131716666Y-35443333D01*
X132316666Y-35843333D02*
X132250000Y-35876666D01*
X132116666Y-35876666D01*
X132050000Y-35843333D01*
X132016666Y-35776666D01*
X132016666Y-35510000D01*
X132050000Y-35443333D01*
X132116666Y-35410000D01*
X132250000Y-35410000D01*
X132316666Y-35443333D01*
X132350000Y-35510000D01*
X132350000Y-35576666D01*
X132016666Y-35643333D01*
X133416666Y-35510000D02*
X133516666Y-35543333D01*
X133550000Y-35576666D01*
X133583333Y-35643333D01*
X133583333Y-35743333D01*
X133550000Y-35810000D01*
X133516666Y-35843333D01*
X133450000Y-35876666D01*
X133183333Y-35876666D01*
X133183333Y-35176666D01*
X133416666Y-35176666D01*
X133483333Y-35210000D01*
X133516666Y-35243333D01*
X133550000Y-35310000D01*
X133550000Y-35376666D01*
X133516666Y-35443333D01*
X133483333Y-35476666D01*
X133416666Y-35510000D01*
X133183333Y-35510000D01*
X133983333Y-35876666D02*
X133916666Y-35843333D01*
X133883333Y-35810000D01*
X133850000Y-35743333D01*
X133850000Y-35543333D01*
X133883333Y-35476666D01*
X133916666Y-35443333D01*
X133983333Y-35410000D01*
X134083333Y-35410000D01*
X134150000Y-35443333D01*
X134183333Y-35476666D01*
X134216666Y-35543333D01*
X134216666Y-35743333D01*
X134183333Y-35810000D01*
X134150000Y-35843333D01*
X134083333Y-35876666D01*
X133983333Y-35876666D01*
X134516666Y-35876666D02*
X134516666Y-35410000D01*
X134516666Y-35543333D02*
X134550000Y-35476666D01*
X134583333Y-35443333D01*
X134650000Y-35410000D01*
X134716666Y-35410000D01*
X135250000Y-35876666D02*
X135250000Y-35176666D01*
X135250000Y-35843333D02*
X135183333Y-35876666D01*
X135050000Y-35876666D01*
X134983333Y-35843333D01*
X134950000Y-35810000D01*
X134916666Y-35743333D01*
X134916666Y-35543333D01*
X134950000Y-35476666D01*
X134983333Y-35443333D01*
X135050000Y-35410000D01*
X135183333Y-35410000D01*
X135250000Y-35443333D01*
X135850000Y-35843333D02*
X135783333Y-35876666D01*
X135650000Y-35876666D01*
X135583333Y-35843333D01*
X135550000Y-35776666D01*
X135550000Y-35510000D01*
X135583333Y-35443333D01*
X135650000Y-35410000D01*
X135783333Y-35410000D01*
X135850000Y-35443333D01*
X135883333Y-35510000D01*
X135883333Y-35576666D01*
X135550000Y-35643333D01*
X136183333Y-35876666D02*
X136183333Y-35410000D01*
X136183333Y-35543333D02*
X136216666Y-35476666D01*
X136250000Y-35443333D01*
X136316666Y-35410000D01*
X136383333Y-35410000D01*
X203483333Y-85516666D02*
X203516666Y-85416666D01*
X203516666Y-85250000D01*
X203483333Y-85183333D01*
X203450000Y-85150000D01*
X203383333Y-85116666D01*
X203316666Y-85116666D01*
X203250000Y-85150000D01*
X203216666Y-85183333D01*
X203183333Y-85250000D01*
X203150000Y-85383333D01*
X203116666Y-85450000D01*
X203083333Y-85483333D01*
X203016666Y-85516666D01*
X202950000Y-85516666D01*
X202883333Y-85483333D01*
X202850000Y-85450000D01*
X202816666Y-85383333D01*
X202816666Y-85216666D01*
X202850000Y-85116666D01*
X203516666Y-84816666D02*
X203050000Y-84816666D01*
X202816666Y-84816666D02*
X202850000Y-84850000D01*
X202883333Y-84816666D01*
X202850000Y-84783333D01*
X202816666Y-84816666D01*
X202883333Y-84816666D01*
X203516666Y-84183333D02*
X202816666Y-84183333D01*
X203483333Y-84183333D02*
X203516666Y-84250000D01*
X203516666Y-84383333D01*
X203483333Y-84450000D01*
X203450000Y-84483333D01*
X203383333Y-84516666D01*
X203183333Y-84516666D01*
X203116666Y-84483333D01*
X203083333Y-84450000D01*
X203050000Y-84383333D01*
X203050000Y-84250000D01*
X203083333Y-84183333D01*
X203483333Y-83583333D02*
X203516666Y-83650000D01*
X203516666Y-83783333D01*
X203483333Y-83850000D01*
X203416666Y-83883333D01*
X203150000Y-83883333D01*
X203083333Y-83850000D01*
X203050000Y-83783333D01*
X203050000Y-83650000D01*
X203083333Y-83583333D01*
X203150000Y-83550000D01*
X203216666Y-83550000D01*
X203283333Y-83883333D01*
X203150000Y-82483333D02*
X203183333Y-82383333D01*
X203216666Y-82350000D01*
X203283333Y-82316666D01*
X203383333Y-82316666D01*
X203450000Y-82350000D01*
X203483333Y-82383333D01*
X203516666Y-82450000D01*
X203516666Y-82716666D01*
X202816666Y-82716666D01*
X202816666Y-82483333D01*
X202850000Y-82416666D01*
X202883333Y-82383333D01*
X202950000Y-82350000D01*
X203016666Y-82350000D01*
X203083333Y-82383333D01*
X203116666Y-82416666D01*
X203150000Y-82483333D01*
X203150000Y-82716666D01*
X203516666Y-81916666D02*
X203483333Y-81983333D01*
X203450000Y-82016666D01*
X203383333Y-82050000D01*
X203183333Y-82050000D01*
X203116666Y-82016666D01*
X203083333Y-81983333D01*
X203050000Y-81916666D01*
X203050000Y-81816666D01*
X203083333Y-81750000D01*
X203116666Y-81716666D01*
X203183333Y-81683333D01*
X203383333Y-81683333D01*
X203450000Y-81716666D01*
X203483333Y-81750000D01*
X203516666Y-81816666D01*
X203516666Y-81916666D01*
X203516666Y-81383333D02*
X203050000Y-81383333D01*
X203183333Y-81383333D02*
X203116666Y-81350000D01*
X203083333Y-81316666D01*
X203050000Y-81250000D01*
X203050000Y-81183333D01*
X203516666Y-80650000D02*
X202816666Y-80650000D01*
X203483333Y-80650000D02*
X203516666Y-80716666D01*
X203516666Y-80850000D01*
X203483333Y-80916666D01*
X203450000Y-80950000D01*
X203383333Y-80983333D01*
X203183333Y-80983333D01*
X203116666Y-80950000D01*
X203083333Y-80916666D01*
X203050000Y-80850000D01*
X203050000Y-80716666D01*
X203083333Y-80650000D01*
X203483333Y-80050000D02*
X203516666Y-80116666D01*
X203516666Y-80250000D01*
X203483333Y-80316666D01*
X203416666Y-80350000D01*
X203150000Y-80350000D01*
X203083333Y-80316666D01*
X203050000Y-80250000D01*
X203050000Y-80116666D01*
X203083333Y-80050000D01*
X203150000Y-80016666D01*
X203216666Y-80016666D01*
X203283333Y-80350000D01*
X203516666Y-79716666D02*
X203050000Y-79716666D01*
X203183333Y-79716666D02*
X203116666Y-79683333D01*
X203083333Y-79650000D01*
X203050000Y-79583333D01*
X203050000Y-79516666D01*
X61946666Y-83393333D02*
X61913333Y-83493333D01*
X61913333Y-83660000D01*
X61946666Y-83726666D01*
X61980000Y-83760000D01*
X62046666Y-83793333D01*
X62113333Y-83793333D01*
X62180000Y-83760000D01*
X62213333Y-83726666D01*
X62246666Y-83660000D01*
X62280000Y-83526666D01*
X62313333Y-83460000D01*
X62346666Y-83426666D01*
X62413333Y-83393333D01*
X62480000Y-83393333D01*
X62546666Y-83426666D01*
X62580000Y-83460000D01*
X62613333Y-83526666D01*
X62613333Y-83693333D01*
X62580000Y-83793333D01*
X61913333Y-84093333D02*
X62380000Y-84093333D01*
X62613333Y-84093333D02*
X62580000Y-84060000D01*
X62546666Y-84093333D01*
X62580000Y-84126666D01*
X62613333Y-84093333D01*
X62546666Y-84093333D01*
X61913333Y-84726666D02*
X62613333Y-84726666D01*
X61946666Y-84726666D02*
X61913333Y-84660000D01*
X61913333Y-84526666D01*
X61946666Y-84460000D01*
X61980000Y-84426666D01*
X62046666Y-84393333D01*
X62246666Y-84393333D01*
X62313333Y-84426666D01*
X62346666Y-84460000D01*
X62380000Y-84526666D01*
X62380000Y-84660000D01*
X62346666Y-84726666D01*
X61946666Y-85326666D02*
X61913333Y-85260000D01*
X61913333Y-85126666D01*
X61946666Y-85060000D01*
X62013333Y-85026666D01*
X62280000Y-85026666D01*
X62346666Y-85060000D01*
X62380000Y-85126666D01*
X62380000Y-85260000D01*
X62346666Y-85326666D01*
X62280000Y-85360000D01*
X62213333Y-85360000D01*
X62146666Y-85026666D01*
X62280000Y-86426666D02*
X62246666Y-86526666D01*
X62213333Y-86560000D01*
X62146666Y-86593333D01*
X62046666Y-86593333D01*
X61980000Y-86560000D01*
X61946666Y-86526666D01*
X61913333Y-86460000D01*
X61913333Y-86193333D01*
X62613333Y-86193333D01*
X62613333Y-86426666D01*
X62580000Y-86493333D01*
X62546666Y-86526666D01*
X62480000Y-86560000D01*
X62413333Y-86560000D01*
X62346666Y-86526666D01*
X62313333Y-86493333D01*
X62280000Y-86426666D01*
X62280000Y-86193333D01*
X61913333Y-86993333D02*
X61946666Y-86926666D01*
X61980000Y-86893333D01*
X62046666Y-86860000D01*
X62246666Y-86860000D01*
X62313333Y-86893333D01*
X62346666Y-86926666D01*
X62380000Y-86993333D01*
X62380000Y-87093333D01*
X62346666Y-87160000D01*
X62313333Y-87193333D01*
X62246666Y-87226666D01*
X62046666Y-87226666D01*
X61980000Y-87193333D01*
X61946666Y-87160000D01*
X61913333Y-87093333D01*
X61913333Y-86993333D01*
X61913333Y-87526666D02*
X62380000Y-87526666D01*
X62246666Y-87526666D02*
X62313333Y-87560000D01*
X62346666Y-87593333D01*
X62380000Y-87660000D01*
X62380000Y-87726666D01*
X61913333Y-88260000D02*
X62613333Y-88260000D01*
X61946666Y-88260000D02*
X61913333Y-88193333D01*
X61913333Y-88060000D01*
X61946666Y-87993333D01*
X61980000Y-87960000D01*
X62046666Y-87926666D01*
X62246666Y-87926666D01*
X62313333Y-87960000D01*
X62346666Y-87993333D01*
X62380000Y-88060000D01*
X62380000Y-88193333D01*
X62346666Y-88260000D01*
X61946666Y-88860000D02*
X61913333Y-88793333D01*
X61913333Y-88660000D01*
X61946666Y-88593333D01*
X62013333Y-88560000D01*
X62280000Y-88560000D01*
X62346666Y-88593333D01*
X62380000Y-88660000D01*
X62380000Y-88793333D01*
X62346666Y-88860000D01*
X62280000Y-88893333D01*
X62213333Y-88893333D01*
X62146666Y-88560000D01*
X61913333Y-89193333D02*
X62380000Y-89193333D01*
X62246666Y-89193333D02*
X62313333Y-89226666D01*
X62346666Y-89260000D01*
X62380000Y-89326666D01*
X62380000Y-89393333D01*
D11*
X173706428Y-62790178D02*
X173813571Y-62825892D01*
X173849285Y-62861607D01*
X173885000Y-62933035D01*
X173885000Y-63040178D01*
X173849285Y-63111607D01*
X173813571Y-63147321D01*
X173742142Y-63183035D01*
X173456428Y-63183035D01*
X173456428Y-62433035D01*
X173706428Y-62433035D01*
X173777857Y-62468750D01*
X173813571Y-62504464D01*
X173849285Y-62575892D01*
X173849285Y-62647321D01*
X173813571Y-62718750D01*
X173777857Y-62754464D01*
X173706428Y-62790178D01*
X173456428Y-62790178D01*
X174313571Y-63183035D02*
X174242142Y-63147321D01*
X174206428Y-63111607D01*
X174170714Y-63040178D01*
X174170714Y-62825892D01*
X174206428Y-62754464D01*
X174242142Y-62718750D01*
X174313571Y-62683035D01*
X174420714Y-62683035D01*
X174492142Y-62718750D01*
X174527857Y-62754464D01*
X174563571Y-62825892D01*
X174563571Y-63040178D01*
X174527857Y-63111607D01*
X174492142Y-63147321D01*
X174420714Y-63183035D01*
X174313571Y-63183035D01*
X174777857Y-62683035D02*
X175063571Y-62683035D01*
X174885000Y-62433035D02*
X174885000Y-63075892D01*
X174920714Y-63147321D01*
X174992142Y-63183035D01*
X175063571Y-63183035D01*
X175206428Y-62683035D02*
X175492142Y-62683035D01*
X175313571Y-62433035D02*
X175313571Y-63075892D01*
X175349285Y-63147321D01*
X175420714Y-63183035D01*
X175492142Y-63183035D01*
X175849285Y-63183035D02*
X175777857Y-63147321D01*
X175742142Y-63111607D01*
X175706428Y-63040178D01*
X175706428Y-62825892D01*
X175742142Y-62754464D01*
X175777857Y-62718750D01*
X175849285Y-62683035D01*
X175956428Y-62683035D01*
X176027857Y-62718750D01*
X176063571Y-62754464D01*
X176099285Y-62825892D01*
X176099285Y-63040178D01*
X176063571Y-63111607D01*
X176027857Y-63147321D01*
X175956428Y-63183035D01*
X175849285Y-63183035D01*
X176420714Y-63183035D02*
X176420714Y-62683035D01*
X176420714Y-62754464D02*
X176456428Y-62718750D01*
X176527857Y-62683035D01*
X176635000Y-62683035D01*
X176706428Y-62718750D01*
X176742142Y-62790178D01*
X176742142Y-63183035D01*
X176742142Y-62790178D02*
X176777857Y-62718750D01*
X176849285Y-62683035D01*
X176956428Y-62683035D01*
X177027857Y-62718750D01*
X177063571Y-62790178D01*
X177063571Y-63183035D01*
X174135000Y-63745535D02*
X174563571Y-63745535D01*
X174349285Y-64495535D02*
X174349285Y-63745535D01*
X175135000Y-63995535D02*
X175135000Y-64495535D01*
X174813571Y-63995535D02*
X174813571Y-64388392D01*
X174849285Y-64459821D01*
X174920714Y-64495535D01*
X175027857Y-64495535D01*
X175099285Y-64459821D01*
X175135000Y-64424107D01*
X175492142Y-64495535D02*
X175492142Y-63995535D01*
X175492142Y-64138392D02*
X175527857Y-64066964D01*
X175563571Y-64031250D01*
X175635000Y-63995535D01*
X175706428Y-63995535D01*
X175956428Y-63995535D02*
X175956428Y-64495535D01*
X175956428Y-64066964D02*
X175992142Y-64031250D01*
X176063571Y-63995535D01*
X176170714Y-63995535D01*
X176242142Y-64031250D01*
X176277857Y-64102678D01*
X176277857Y-64495535D01*
X129705000Y-59279285D02*
X130133571Y-59279285D01*
X129919285Y-60029285D02*
X129919285Y-59279285D01*
X130490714Y-60029285D02*
X130419285Y-59993571D01*
X130383571Y-59957857D01*
X130347857Y-59886428D01*
X130347857Y-59672142D01*
X130383571Y-59600714D01*
X130419285Y-59565000D01*
X130490714Y-59529285D01*
X130597857Y-59529285D01*
X130669285Y-59565000D01*
X130705000Y-59600714D01*
X130740714Y-59672142D01*
X130740714Y-59886428D01*
X130705000Y-59957857D01*
X130669285Y-59993571D01*
X130597857Y-60029285D01*
X130490714Y-60029285D01*
X131062142Y-59529285D02*
X131062142Y-60279285D01*
X131062142Y-59565000D02*
X131133571Y-59529285D01*
X131276428Y-59529285D01*
X131347857Y-59565000D01*
X131383571Y-59600714D01*
X131419285Y-59672142D01*
X131419285Y-59886428D01*
X131383571Y-59957857D01*
X131347857Y-59993571D01*
X131276428Y-60029285D01*
X131133571Y-60029285D01*
X131062142Y-59993571D01*
X132205000Y-59279285D02*
X132633571Y-59279285D01*
X132419285Y-60029285D02*
X132419285Y-59279285D01*
X133205000Y-59529285D02*
X133205000Y-60029285D01*
X132883571Y-59529285D02*
X132883571Y-59922142D01*
X132919285Y-59993571D01*
X132990714Y-60029285D01*
X133097857Y-60029285D01*
X133169285Y-59993571D01*
X133205000Y-59957857D01*
X133562142Y-60029285D02*
X133562142Y-59529285D01*
X133562142Y-59672142D02*
X133597857Y-59600714D01*
X133633571Y-59565000D01*
X133705000Y-59529285D01*
X133776428Y-59529285D01*
X134026428Y-59529285D02*
X134026428Y-60029285D01*
X134026428Y-59600714D02*
X134062142Y-59565000D01*
X134133571Y-59529285D01*
X134240714Y-59529285D01*
X134312142Y-59565000D01*
X134347857Y-59636428D01*
X134347857Y-60029285D01*
D12*
X122476190Y-62682380D02*
X121904761Y-62682380D01*
X122190476Y-62682380D02*
X122190476Y-61682380D01*
X122095238Y-61825238D01*
X122000000Y-61920476D01*
X121904761Y-61968095D01*
X124095238Y-62015714D02*
X124095238Y-62682380D01*
X123666666Y-62015714D02*
X123666666Y-62539523D01*
X123714285Y-62634761D01*
X123809523Y-62682380D01*
X123952380Y-62682380D01*
X124047619Y-62634761D01*
X124095238Y-62587142D01*
X124571428Y-62682380D02*
X124571428Y-61682380D01*
X124571428Y-62158571D02*
X125142857Y-62158571D01*
X125142857Y-62682380D02*
X125142857Y-61682380D01*
X126380952Y-62682380D02*
X126380952Y-61682380D01*
X126857142Y-62015714D02*
X126857142Y-62682380D01*
X126857142Y-62110952D02*
X126904761Y-62063333D01*
X127000000Y-62015714D01*
X127142857Y-62015714D01*
X127238095Y-62063333D01*
X127285714Y-62158571D01*
X127285714Y-62682380D01*
X128190476Y-62682380D02*
X128190476Y-61682380D01*
X128190476Y-62634761D02*
X128095238Y-62682380D01*
X127904761Y-62682380D01*
X127809523Y-62634761D01*
X127761904Y-62587142D01*
X127714285Y-62491904D01*
X127714285Y-62206190D01*
X127761904Y-62110952D01*
X127809523Y-62063333D01*
X127904761Y-62015714D01*
X128095238Y-62015714D01*
X128190476Y-62063333D01*
X129095238Y-62015714D02*
X129095238Y-62682380D01*
X128666666Y-62015714D02*
X128666666Y-62539523D01*
X128714285Y-62634761D01*
X128809523Y-62682380D01*
X128952380Y-62682380D01*
X129047619Y-62634761D01*
X129095238Y-62587142D01*
X130000000Y-62634761D02*
X129904761Y-62682380D01*
X129714285Y-62682380D01*
X129619047Y-62634761D01*
X129571428Y-62587142D01*
X129523809Y-62491904D01*
X129523809Y-62206190D01*
X129571428Y-62110952D01*
X129619047Y-62063333D01*
X129714285Y-62015714D01*
X129904761Y-62015714D01*
X130000000Y-62063333D01*
X130285714Y-62015714D02*
X130666666Y-62015714D01*
X130428571Y-61682380D02*
X130428571Y-62539523D01*
X130476190Y-62634761D01*
X130571428Y-62682380D01*
X130666666Y-62682380D01*
X131142857Y-62682380D02*
X131047619Y-62634761D01*
X131000000Y-62587142D01*
X130952380Y-62491904D01*
X130952380Y-62206190D01*
X131000000Y-62110952D01*
X131047619Y-62063333D01*
X131142857Y-62015714D01*
X131285714Y-62015714D01*
X131380952Y-62063333D01*
X131428571Y-62110952D01*
X131476190Y-62206190D01*
X131476190Y-62491904D01*
X131428571Y-62587142D01*
X131380952Y-62634761D01*
X131285714Y-62682380D01*
X131142857Y-62682380D01*
X131904761Y-62682380D02*
X131904761Y-62015714D01*
X131904761Y-62206190D02*
X131952380Y-62110952D01*
X132000000Y-62063333D01*
X132095238Y-62015714D01*
X132190476Y-62015714D01*
X95330000Y-81732380D02*
X94758571Y-81732380D01*
X95044285Y-81732380D02*
X95044285Y-80732380D01*
X94949047Y-80875238D01*
X94853809Y-80970476D01*
X94758571Y-81018095D01*
X95949047Y-80732380D02*
X96044285Y-80732380D01*
X96139523Y-80780000D01*
X96187142Y-80827619D01*
X96234761Y-80922857D01*
X96282380Y-81113333D01*
X96282380Y-81351428D01*
X96234761Y-81541904D01*
X96187142Y-81637142D01*
X96139523Y-81684761D01*
X96044285Y-81732380D01*
X95949047Y-81732380D01*
X95853809Y-81684761D01*
X95806190Y-81637142D01*
X95758571Y-81541904D01*
X95710952Y-81351428D01*
X95710952Y-81113333D01*
X95758571Y-80922857D01*
X95806190Y-80827619D01*
X95853809Y-80780000D01*
X95949047Y-80732380D01*
X97901428Y-81065714D02*
X97901428Y-81732380D01*
X97472857Y-81065714D02*
X97472857Y-81589523D01*
X97520476Y-81684761D01*
X97615714Y-81732380D01*
X97758571Y-81732380D01*
X97853809Y-81684761D01*
X97901428Y-81637142D01*
X98377619Y-81732380D02*
X98377619Y-80732380D01*
X98377619Y-81208571D02*
X98949047Y-81208571D01*
X98949047Y-81732380D02*
X98949047Y-80732380D01*
X100187142Y-81732380D02*
X100187142Y-80732380D01*
X100663333Y-81065714D02*
X100663333Y-81732380D01*
X100663333Y-81160952D02*
X100710952Y-81113333D01*
X100806190Y-81065714D01*
X100949047Y-81065714D01*
X101044285Y-81113333D01*
X101091904Y-81208571D01*
X101091904Y-81732380D01*
X101996666Y-81732380D02*
X101996666Y-80732380D01*
X101996666Y-81684761D02*
X101901428Y-81732380D01*
X101710952Y-81732380D01*
X101615714Y-81684761D01*
X101568095Y-81637142D01*
X101520476Y-81541904D01*
X101520476Y-81256190D01*
X101568095Y-81160952D01*
X101615714Y-81113333D01*
X101710952Y-81065714D01*
X101901428Y-81065714D01*
X101996666Y-81113333D01*
X102901428Y-81065714D02*
X102901428Y-81732380D01*
X102472857Y-81065714D02*
X102472857Y-81589523D01*
X102520476Y-81684761D01*
X102615714Y-81732380D01*
X102758571Y-81732380D01*
X102853809Y-81684761D01*
X102901428Y-81637142D01*
X103806190Y-81684761D02*
X103710952Y-81732380D01*
X103520476Y-81732380D01*
X103425238Y-81684761D01*
X103377619Y-81637142D01*
X103330000Y-81541904D01*
X103330000Y-81256190D01*
X103377619Y-81160952D01*
X103425238Y-81113333D01*
X103520476Y-81065714D01*
X103710952Y-81065714D01*
X103806190Y-81113333D01*
X104091904Y-81065714D02*
X104472857Y-81065714D01*
X104234761Y-80732380D02*
X104234761Y-81589523D01*
X104282380Y-81684761D01*
X104377619Y-81732380D01*
X104472857Y-81732380D01*
X104949047Y-81732380D02*
X104853809Y-81684761D01*
X104806190Y-81637142D01*
X104758571Y-81541904D01*
X104758571Y-81256190D01*
X104806190Y-81160952D01*
X104853809Y-81113333D01*
X104949047Y-81065714D01*
X105091904Y-81065714D01*
X105187142Y-81113333D01*
X105234761Y-81160952D01*
X105282380Y-81256190D01*
X105282380Y-81541904D01*
X105234761Y-81637142D01*
X105187142Y-81684761D01*
X105091904Y-81732380D01*
X104949047Y-81732380D01*
X105710952Y-81732380D02*
X105710952Y-81065714D01*
X105710952Y-81256190D02*
X105758571Y-81160952D01*
X105806190Y-81113333D01*
X105901428Y-81065714D01*
X105996666Y-81065714D01*
D13*
%TO.P, ,1*%
%TO.N,N/C*%
X177800000Y-77470000D03*
D14*
%TO.P, ,2*%
X177800000Y-72470000D03*
%TD*%
D13*
%TO.P, ,1*%
%TO.N,N/C*%
X168910000Y-77470000D03*
D14*
%TO.P, ,2*%
X168910000Y-72470000D03*
%TD*%
D13*
%TO.P, ,1*%
%TO.N,N/C*%
X160020000Y-77470000D03*
D14*
%TO.P, ,2*%
X160020000Y-72470000D03*
%TD*%
D13*
%TO.P,C2 (6KV\u002C 33pF),1*%
%TO.N,N/C*%
X187960000Y-77470000D03*
D14*
%TO.P,C2 (6KV\u002C 33pF),2*%
X187960000Y-72470000D03*
%TD*%
D15*
%TO.P, ,1*%
%TO.N,N/C*%
X149860000Y-77740000D03*
%TO.P, ,2*%
X149860000Y-79740000D03*
%TD*%
%TO.P,C\u002A\u002A,1*%
%TO.N,N/C*%
X152400000Y-77740000D03*
%TO.P,C\u002A\u002A,2*%
X152400000Y-79740000D03*
%TD*%
%TO.P,C\u002A\u002A,1*%
%TO.N,N/C*%
X152400000Y-77740000D03*
%TO.P,C\u002A\u002A,2*%
X152400000Y-79740000D03*
%TD*%
D16*
%TO.P,R1 (.5W\u002C 1KOhm),1*%
%TO.N,N/C*%
X133350000Y-98740000D03*
%TO.P,R1 (.5W\u002C 1KOhm),2*%
X133350000Y-96840000D03*
%TD*%
D17*
%TO.P,R1 (.5W\u002C 1KOhm),1*%
%TO.N,N/C*%
X109540000Y-90170000D03*
%TO.P,R1 (.5W\u002C 1KOhm),2*%
X111440000Y-90170000D03*
%TD*%
D18*
%TO.P,VR\u002A\u002A,R11*%
%TO.N,N/C*%
X124460000Y-104140000D03*
D19*
%TO.P,VR\u002A\u002A,R12*%
X124460000Y-106680000D03*
%TO.P,VR\u002A\u002A,R13*%
X124460000Y-109220000D03*
%TD*%
D20*
%TO.P,Q\u002A\u002A,3*%
%TO.N,N/C*%
X133350000Y-72920000D03*
%TO.P,Q\u002A\u002A,2*%
X133350000Y-78370000D03*
D21*
%TO.P,Q\u002A\u002A,1*%
X133350000Y-83820000D03*
%TD*%
D22*
%TO.N,*%
X80010000Y-95250000D03*
X80010000Y-119380000D03*
X110490000Y-77470000D03*
X90170000Y-78740000D03*
X172720000Y-60960000D03*
X138430000Y-60960000D03*
%TD*%
D23*
%TO.N,*%
X80010000Y-95250000D02*
X86360000Y-95250000D01*
X86360000Y-95250000D02*
X86360000Y-105180000D01*
X86360000Y-108180000D02*
X86360000Y-119380000D01*
X86360000Y-119380000D02*
X80010000Y-119380000D01*
X86360000Y-90170000D02*
X86360000Y-92710000D01*
X86360000Y-95250000D02*
X86360000Y-92710000D01*
X109540000Y-90170000D02*
X86360000Y-90170000D01*
X111440000Y-90170000D02*
X124460000Y-90170000D01*
X124460000Y-90170000D02*
X124460000Y-104140000D01*
X86360000Y-90170000D02*
X86360000Y-78740000D01*
X86360000Y-119380000D02*
X124460000Y-119380000D01*
X124460000Y-119380000D02*
X124460000Y-109220000D01*
X86360000Y-78740000D02*
X90170000Y-78740000D01*
X111390000Y-78370000D02*
X110490000Y-77470000D01*
X133350000Y-78370000D02*
X111390000Y-78370000D01*
X110490000Y-77470000D02*
X110490000Y-68580000D01*
X110490000Y-68580000D02*
X110490000Y-68580000D01*
X90170000Y-78740000D02*
X90170000Y-78740000D01*
X124460000Y-106680000D02*
X133350000Y-106680000D01*
X133350000Y-106680000D02*
X133350000Y-98740000D01*
X133350000Y-72920000D02*
X150390000Y-72920000D01*
X149860000Y-77470000D02*
X149860000Y-76200000D01*
X152400000Y-76200000D02*
X152400000Y-77470000D01*
X151130000Y-76200000D02*
X151130000Y-72390000D01*
X149860000Y-76200000D02*
X151130000Y-76200000D01*
X151130000Y-76200000D02*
X152400000Y-76200000D01*
X150920000Y-72390000D02*
X150390000Y-72920000D01*
X151130000Y-72390000D02*
X150920000Y-72390000D01*
X149860000Y-82550000D02*
X151130000Y-82550000D01*
X151130000Y-82550000D02*
X152400000Y-82550000D01*
X151130000Y-90170000D02*
X134620000Y-90170000D01*
X151130000Y-82550000D02*
X151130000Y-90170000D01*
X133350000Y-91440000D02*
X133350000Y-83820000D01*
X134620000Y-90170000D02*
X133350000Y-91440000D01*
X133350000Y-96840000D02*
X133350000Y-91440000D01*
X110490000Y-68580000D02*
X110490000Y-60960000D01*
X110490000Y-60960000D02*
X138430000Y-60960000D01*
X177800000Y-66040000D02*
X172720000Y-66040000D01*
X172720000Y-66040000D02*
X172720000Y-60960000D01*
X172720000Y-66040000D02*
X168910000Y-66040000D01*
X172720000Y-60960000D02*
X172720000Y-60960000D01*
X138430000Y-60960000D02*
X138430000Y-60960000D01*
X186690000Y-86360000D02*
X160020000Y-86360000D01*
X187960000Y-66040000D02*
X187960000Y-72470000D01*
X160020000Y-66040000D02*
X187960000Y-66040000D01*
X177800000Y-66040000D02*
X177800000Y-72470000D01*
X168910000Y-66040000D02*
X168910000Y-72470000D01*
X160020000Y-66040000D02*
X160020000Y-72470000D01*
X160020000Y-77470000D02*
X160020000Y-86360000D01*
X151130000Y-92710000D02*
X151130000Y-90170000D01*
X173990000Y-92710000D02*
X151130000Y-92710000D01*
X173990000Y-86360000D02*
X173990000Y-92710000D01*
X168910000Y-86360000D02*
X173990000Y-86360000D01*
X168910000Y-77470000D02*
X168910000Y-86360000D01*
X177800000Y-77470000D02*
X177800000Y-86360000D01*
X177800000Y-86360000D02*
X187960000Y-86360000D01*
X187960000Y-86360000D02*
X187960000Y-77470000D01*
X152400000Y-79740000D02*
X152400000Y-82550000D01*
X149860000Y-79740000D02*
X149860000Y-82550000D01*
%TD*%
M02*
