%TF.GenerationSoftware,KiCad,Pcbnew,5.1.9+dfsg1-1+deb11u1*%
%TF.CreationDate,2023-05-03T00:18:42-05:00*%
%TF.ProjectId,PCB Test Design,50434220-5465-4737-9420-44657369676e,rev?*%
%TF.SameCoordinates,Original*%
%TF.FileFunction,Legend,Top*%
%TF.FilePolarity,Positive*%
%FSLAX46Y46*%
G04 Gerber Fmt 4.6, Leading zero omitted, Abs format (unit mm)*
G04 Created by KiCad (PCBNEW 5.1.9+dfsg1-1+deb11u1) date 2023-05-03 00:18:42*
%MOMM*%
%LPD*%
G01*
G04 APERTURE LIST*
%ADD10C,0.254000*%
%ADD11C,0.200000*%
%ADD12C,0.100000*%
%ADD13C,0.250000*%
G04 APERTURE END LIST*
D10*
%TO.C, *%
X154990000Y-80010000D02*
G75*
G03*
X154990000Y-80010000I-50000J0D01*
G01*
%TO.C,C2 (6KV\u002C 33pF)*%
X182930000Y-80010000D02*
G75*
G03*
X182930000Y-80010000I-50000J0D01*
G01*
D11*
%TO.C, *%
X150385000Y-78740000D02*
X149335000Y-78740000D01*
%TO.C,C\u002A\u002A*%
X152925000Y-78740000D02*
X151875000Y-78740000D01*
X152925000Y-78740000D02*
X151875000Y-78740000D01*
%TO.C,R1 (.5W\u002C 1KOhm)*%
X110490000Y-89645000D02*
X110490000Y-90695000D01*
%TO.C,VR\u002A\u002A*%
X126110000Y-114620000D02*
X113410000Y-114620000D01*
X113410000Y-114620000D02*
X113410000Y-98740000D01*
X113410000Y-98740000D02*
X126110000Y-98740000D01*
X126110000Y-98740000D02*
X126110000Y-114620000D01*
X113410000Y-111680000D02*
X104410000Y-111680000D01*
X104410000Y-111680000D02*
X104410000Y-101680000D01*
X104410000Y-101680000D02*
X113410000Y-101680000D01*
X113410000Y-101680000D02*
X113410000Y-111680000D01*
X104410000Y-109680000D02*
X91410000Y-109680000D01*
X91410000Y-109680000D02*
X91410000Y-103680000D01*
X91410000Y-103680000D02*
X104410000Y-103680000D01*
X104410000Y-103680000D02*
X104410000Y-109680000D01*
D12*
X126560000Y-104140000D02*
X126560000Y-104140000D01*
X126460000Y-104140000D02*
X126460000Y-104140000D01*
X126460000Y-104140000D02*
G75*
G02*
X126560000Y-104140000I50000J0D01*
G01*
X126560000Y-104140000D02*
G75*
G02*
X126460000Y-104140000I-50000J0D01*
G01*
D11*
%TO.C,Q\u002A\u002A*%
X130075000Y-86470000D02*
X133350000Y-86470000D01*
X130075000Y-70270000D02*
X130075000Y-86470000D01*
X135075000Y-70270000D02*
X130075000Y-70270000D01*
%TO.C, *%
D10*
%TO.C,C2 (6KV\u002C 33pF)*%
D13*
X183237142Y-82541428D02*
X183284761Y-82589047D01*
X183332380Y-82731904D01*
X183332380Y-82827142D01*
X183284761Y-82970000D01*
X183189523Y-83065238D01*
X183094285Y-83112857D01*
X182903809Y-83160476D01*
X182760952Y-83160476D01*
X182570476Y-83112857D01*
X182475238Y-83065238D01*
X182380000Y-82970000D01*
X182332380Y-82827142D01*
X182332380Y-82731904D01*
X182380000Y-82589047D01*
X182427619Y-82541428D01*
X182427619Y-82160476D02*
X182380000Y-82112857D01*
X182332380Y-82017619D01*
X182332380Y-81779523D01*
X182380000Y-81684285D01*
X182427619Y-81636666D01*
X182522857Y-81589047D01*
X182618095Y-81589047D01*
X182760952Y-81636666D01*
X183332380Y-82208095D01*
X183332380Y-81589047D01*
X183713333Y-80112857D02*
X183665714Y-80160476D01*
X183522857Y-80255714D01*
X183427619Y-80303333D01*
X183284761Y-80350952D01*
X183046666Y-80398571D01*
X182856190Y-80398571D01*
X182618095Y-80350952D01*
X182475238Y-80303333D01*
X182380000Y-80255714D01*
X182237142Y-80160476D01*
X182189523Y-80112857D01*
X182332380Y-79303333D02*
X182332380Y-79493809D01*
X182380000Y-79589047D01*
X182427619Y-79636666D01*
X182570476Y-79731904D01*
X182760952Y-79779523D01*
X183141904Y-79779523D01*
X183237142Y-79731904D01*
X183284761Y-79684285D01*
X183332380Y-79589047D01*
X183332380Y-79398571D01*
X183284761Y-79303333D01*
X183237142Y-79255714D01*
X183141904Y-79208095D01*
X182903809Y-79208095D01*
X182808571Y-79255714D01*
X182760952Y-79303333D01*
X182713333Y-79398571D01*
X182713333Y-79589047D01*
X182760952Y-79684285D01*
X182808571Y-79731904D01*
X182903809Y-79779523D01*
X183332380Y-78779523D02*
X182332380Y-78779523D01*
X183332380Y-78208095D02*
X182760952Y-78636666D01*
X182332380Y-78208095D02*
X182903809Y-78779523D01*
X182332380Y-77922380D02*
X183332380Y-77589047D01*
X182332380Y-77255714D01*
X183284761Y-76874761D02*
X183332380Y-76874761D01*
X183427619Y-76922380D01*
X183475238Y-76970000D01*
X182332380Y-75779523D02*
X182332380Y-75160476D01*
X182713333Y-75493809D01*
X182713333Y-75350952D01*
X182760952Y-75255714D01*
X182808571Y-75208095D01*
X182903809Y-75160476D01*
X183141904Y-75160476D01*
X183237142Y-75208095D01*
X183284761Y-75255714D01*
X183332380Y-75350952D01*
X183332380Y-75636666D01*
X183284761Y-75731904D01*
X183237142Y-75779523D01*
X182332380Y-74827142D02*
X182332380Y-74208095D01*
X182713333Y-74541428D01*
X182713333Y-74398571D01*
X182760952Y-74303333D01*
X182808571Y-74255714D01*
X182903809Y-74208095D01*
X183141904Y-74208095D01*
X183237142Y-74255714D01*
X183284761Y-74303333D01*
X183332380Y-74398571D01*
X183332380Y-74684285D01*
X183284761Y-74779523D01*
X183237142Y-74827142D01*
X182665714Y-73779523D02*
X183665714Y-73779523D01*
X182713333Y-73779523D02*
X182665714Y-73684285D01*
X182665714Y-73493809D01*
X182713333Y-73398571D01*
X182760952Y-73350952D01*
X182856190Y-73303333D01*
X183141904Y-73303333D01*
X183237142Y-73350952D01*
X183284761Y-73398571D01*
X183332380Y-73493809D01*
X183332380Y-73684285D01*
X183284761Y-73779523D01*
X182808571Y-72541428D02*
X182808571Y-72874761D01*
X183332380Y-72874761D02*
X182332380Y-72874761D01*
X182332380Y-72398571D01*
X183713333Y-72112857D02*
X183665714Y-72065238D01*
X183522857Y-71970000D01*
X183427619Y-71922380D01*
X183284761Y-71874761D01*
X183046666Y-71827142D01*
X182856190Y-71827142D01*
X182618095Y-71874761D01*
X182475238Y-71922380D01*
X182380000Y-71970000D01*
X182237142Y-72065238D01*
X182189523Y-72112857D01*
%TO.C, *%
D10*
%TO.C,C\u002A\u002A*%
X155393571Y-79314523D02*
X155454047Y-79375000D01*
X155514523Y-79556428D01*
X155514523Y-79677380D01*
X155454047Y-79858809D01*
X155333095Y-79979761D01*
X155212142Y-80040238D01*
X154970238Y-80100714D01*
X154788809Y-80100714D01*
X154546904Y-80040238D01*
X154425952Y-79979761D01*
X154305000Y-79858809D01*
X154244523Y-79677380D01*
X154244523Y-79556428D01*
X154305000Y-79375000D01*
X154365476Y-79314523D01*
X154244523Y-78588809D02*
X154546904Y-78588809D01*
X154425952Y-78891190D02*
X154546904Y-78588809D01*
X154425952Y-78286428D01*
X154788809Y-78770238D02*
X154546904Y-78588809D01*
X154788809Y-78407380D01*
X154244523Y-77621190D02*
X154546904Y-77621190D01*
X154425952Y-77923571D02*
X154546904Y-77621190D01*
X154425952Y-77318809D01*
X154788809Y-77802619D02*
X154546904Y-77621190D01*
X154788809Y-77439761D01*
X155393571Y-79314523D02*
X155454047Y-79375000D01*
X155514523Y-79556428D01*
X155514523Y-79677380D01*
X155454047Y-79858809D01*
X155333095Y-79979761D01*
X155212142Y-80040238D01*
X154970238Y-80100714D01*
X154788809Y-80100714D01*
X154546904Y-80040238D01*
X154425952Y-79979761D01*
X154305000Y-79858809D01*
X154244523Y-79677380D01*
X154244523Y-79556428D01*
X154305000Y-79375000D01*
X154365476Y-79314523D01*
X154244523Y-78588809D02*
X154546904Y-78588809D01*
X154425952Y-78891190D02*
X154546904Y-78588809D01*
X154425952Y-78286428D01*
X154788809Y-78770238D02*
X154546904Y-78588809D01*
X154788809Y-78407380D01*
X154244523Y-77621190D02*
X154546904Y-77621190D01*
X154425952Y-77923571D02*
X154546904Y-77621190D01*
X154425952Y-77318809D01*
X154788809Y-77802619D02*
X154546904Y-77621190D01*
X154788809Y-77439761D01*
%TO.C,R1 (.5W\u002C 1KOhm)*%
D13*
X104751904Y-88082380D02*
X104418571Y-87606190D01*
X104180476Y-88082380D02*
X104180476Y-87082380D01*
X104561428Y-87082380D01*
X104656666Y-87130000D01*
X104704285Y-87177619D01*
X104751904Y-87272857D01*
X104751904Y-87415714D01*
X104704285Y-87510952D01*
X104656666Y-87558571D01*
X104561428Y-87606190D01*
X104180476Y-87606190D01*
X105704285Y-88082380D02*
X105132857Y-88082380D01*
X105418571Y-88082380D02*
X105418571Y-87082380D01*
X105323333Y-87225238D01*
X105228095Y-87320476D01*
X105132857Y-87368095D01*
X107180476Y-88463333D02*
X107132857Y-88415714D01*
X107037619Y-88272857D01*
X106990000Y-88177619D01*
X106942380Y-88034761D01*
X106894761Y-87796666D01*
X106894761Y-87606190D01*
X106942380Y-87368095D01*
X106990000Y-87225238D01*
X107037619Y-87130000D01*
X107132857Y-86987142D01*
X107180476Y-86939523D01*
X107561428Y-87987142D02*
X107609047Y-88034761D01*
X107561428Y-88082380D01*
X107513809Y-88034761D01*
X107561428Y-87987142D01*
X107561428Y-88082380D01*
X108513809Y-87082380D02*
X108037619Y-87082380D01*
X107990000Y-87558571D01*
X108037619Y-87510952D01*
X108132857Y-87463333D01*
X108370952Y-87463333D01*
X108466190Y-87510952D01*
X108513809Y-87558571D01*
X108561428Y-87653809D01*
X108561428Y-87891904D01*
X108513809Y-87987142D01*
X108466190Y-88034761D01*
X108370952Y-88082380D01*
X108132857Y-88082380D01*
X108037619Y-88034761D01*
X107990000Y-87987142D01*
X108894761Y-87082380D02*
X109132857Y-88082380D01*
X109323333Y-87368095D01*
X109513809Y-88082380D01*
X109751904Y-87082380D01*
X110180476Y-88034761D02*
X110180476Y-88082380D01*
X110132857Y-88177619D01*
X110085238Y-88225238D01*
X111894761Y-88082380D02*
X111323333Y-88082380D01*
X111609047Y-88082380D02*
X111609047Y-87082380D01*
X111513809Y-87225238D01*
X111418571Y-87320476D01*
X111323333Y-87368095D01*
X112323333Y-88082380D02*
X112323333Y-87082380D01*
X112894761Y-88082380D02*
X112466190Y-87510952D01*
X112894761Y-87082380D02*
X112323333Y-87653809D01*
X113513809Y-87082380D02*
X113704285Y-87082380D01*
X113799523Y-87130000D01*
X113894761Y-87225238D01*
X113942380Y-87415714D01*
X113942380Y-87749047D01*
X113894761Y-87939523D01*
X113799523Y-88034761D01*
X113704285Y-88082380D01*
X113513809Y-88082380D01*
X113418571Y-88034761D01*
X113323333Y-87939523D01*
X113275714Y-87749047D01*
X113275714Y-87415714D01*
X113323333Y-87225238D01*
X113418571Y-87130000D01*
X113513809Y-87082380D01*
X114370952Y-88082380D02*
X114370952Y-87082380D01*
X114799523Y-88082380D02*
X114799523Y-87558571D01*
X114751904Y-87463333D01*
X114656666Y-87415714D01*
X114513809Y-87415714D01*
X114418571Y-87463333D01*
X114370952Y-87510952D01*
X115275714Y-88082380D02*
X115275714Y-87415714D01*
X115275714Y-87510952D02*
X115323333Y-87463333D01*
X115418571Y-87415714D01*
X115561428Y-87415714D01*
X115656666Y-87463333D01*
X115704285Y-87558571D01*
X115704285Y-88082380D01*
X115704285Y-87558571D02*
X115751904Y-87463333D01*
X115847142Y-87415714D01*
X115990000Y-87415714D01*
X116085238Y-87463333D01*
X116132857Y-87558571D01*
X116132857Y-88082380D01*
X116513809Y-88463333D02*
X116561428Y-88415714D01*
X116656666Y-88272857D01*
X116704285Y-88177619D01*
X116751904Y-88034761D01*
X116799523Y-87796666D01*
X116799523Y-87606190D01*
X116751904Y-87368095D01*
X116704285Y-87225238D01*
X116656666Y-87130000D01*
X116561428Y-86987142D01*
X116513809Y-86939523D01*
%TO.C,VR\u002A\u002A*%
D10*
X106734047Y-105984523D02*
X107157380Y-107254523D01*
X107580714Y-105984523D01*
X108729761Y-107254523D02*
X108306428Y-106649761D01*
X108004047Y-107254523D02*
X108004047Y-105984523D01*
X108487857Y-105984523D01*
X108608809Y-106045000D01*
X108669285Y-106105476D01*
X108729761Y-106226428D01*
X108729761Y-106407857D01*
X108669285Y-106528809D01*
X108608809Y-106589285D01*
X108487857Y-106649761D01*
X108004047Y-106649761D01*
X109455476Y-105984523D02*
X109455476Y-106286904D01*
X109153095Y-106165952D02*
X109455476Y-106286904D01*
X109757857Y-106165952D01*
X109274047Y-106528809D02*
X109455476Y-106286904D01*
X109636904Y-106528809D01*
X110423095Y-105984523D02*
X110423095Y-106286904D01*
X110120714Y-106165952D02*
X110423095Y-106286904D01*
X110725476Y-106165952D01*
X110241666Y-106528809D02*
X110423095Y-106286904D01*
X110604523Y-106528809D01*
%TO.C,Q\u002A\u002A*%
X134045476Y-84303809D02*
X133985000Y-84424761D01*
X133864047Y-84545714D01*
X133682619Y-84727142D01*
X133622142Y-84848095D01*
X133622142Y-84969047D01*
X133924523Y-84908571D02*
X133864047Y-85029523D01*
X133743095Y-85150476D01*
X133501190Y-85210952D01*
X133077857Y-85210952D01*
X132835952Y-85150476D01*
X132715000Y-85029523D01*
X132654523Y-84908571D01*
X132654523Y-84666666D01*
X132715000Y-84545714D01*
X132835952Y-84424761D01*
X133077857Y-84364285D01*
X133501190Y-84364285D01*
X133743095Y-84424761D01*
X133864047Y-84545714D01*
X133924523Y-84666666D01*
X133924523Y-84908571D01*
X132654523Y-83638571D02*
X132956904Y-83638571D01*
X132835952Y-83940952D02*
X132956904Y-83638571D01*
X132835952Y-83336190D01*
X133198809Y-83820000D02*
X132956904Y-83638571D01*
X133198809Y-83457142D01*
X132654523Y-82670952D02*
X132956904Y-82670952D01*
X132835952Y-82973333D02*
X132956904Y-82670952D01*
X132835952Y-82368571D01*
X133198809Y-82852380D02*
X132956904Y-82670952D01*
X133198809Y-82489523D01*
%TD*%
M02*
