M48
; DRILL file {KiCad 5.1.9+dfsg1-1+deb11u1} date Wed May  3 00:18:43 2023
; FORMAT={-:-/ absolute / inch / decimal}
; #@! TF.CreationDate,2023-05-03T00:18:43-05:00
; #@! TF.GenerationSoftware,Kicad,Pcbnew,5.1.9+dfsg1-1+deb11u1
; #@! TF.FileFunction,Plated,1,2,PTH
FMAT,2
INCH
T1C0.0157
T2C0.0315
T3C0.0398
T4C0.0638
%
G90
G05
T1
X3.15Y-3.75
X3.15Y-4.7
X3.55Y-3.1
X4.35Y-3.05
X5.45Y-2.4
X6.8Y-2.4
T2
X6.3Y-2.8531
X6.3Y-3.05
X6.65Y-2.8531
X6.65Y-3.05
X7.0Y-2.8531
X7.0Y-3.05
X7.4Y-2.8531
X7.4Y-3.05
T3
X4.9Y-4.1
X4.9Y-4.2
X4.9Y-4.3
T4
X5.25Y-2.8709
X5.25Y-3.0854
X5.25Y-3.3
T0
M30
